<?xml version="1.0" standalone="no"?>
<!DOCTYPE svg PUBLIC "-//W3C//DTD SVG 20010904//EN"
 "http://www.w3.org/TR/2001/REC-SVG-20010904/DTD/svg10.dtd">
<svg version="1.0" xmlns="http://www.w3.org/2000/svg"
 width="2999.000000pt" height="2999.000000pt" viewBox="0 0 2999.000000 2999.000000"
 preserveAspectRatio="xMidYMid meet">
<metadata>
Created by potrace 1.14, written by Peter Selinger 2001-2017
</metadata>
<g transform="translate(0.000000,2999.000000) scale(0.100000,-0.100000)"
fill="#000000" stroke="none">
<path d="M15007 28054 c-1 -1 -72 -4 -157 -8 -85 -3 -164 -7 -175 -10 -11 -2
-47 -6 -80 -10 -53 -6 -115 -17 -182 -31 -88 -19 -117 -25 -138 -29 -115 -22
-456 -143 -593 -210 -40 -20 -74 -36 -77 -36 -23 0 -410 -243 -472 -296 -24
-21 -37 -32 -108 -88 -102 -81 -302 -280 -390 -387 -90 -109 -234 -308 -265
-366 -8 -15 -36 -64 -62 -108 -79 -135 -200 -406 -224 -499 -3 -14 -10 -28
-14 -31 -4 -2 -47 28 -96 68 -103 84 -254 191 -369 260 -150 92 -426 221 -580
272 -107 35 -203 64 -225 68 -14 3 -43 10 -65 15 -22 6 -53 14 -70 17 -82 16
-187 35 -231 40 -27 4 -56 8 -64 10 -64 17 -453 24 -600 11 -139 -13 -158 -15
-218 -25 -31 -6 -76 -13 -99 -16 -137 -19 -496 -127 -648 -195 -411 -183 -706
-386 -1004 -689 -385 -393 -656 -886 -791 -1440 -17 -68 -35 -153 -40 -190 -5
-36 -12 -84 -15 -106 -3 -22 -7 -49 -10 -60 -17 -84 -24 -439 -11 -595 12
-146 23 -237 30 -249 2 -3 7 -33 11 -66 3 -32 9 -63 12 -68 3 -5 -3 -7 -13 -4
-11 3 -37 8 -59 12 -22 3 -65 10 -95 15 -251 43 -665 44 -885 4 -11 -2 -40 -7
-65 -10 -76 -9 -309 -64 -415 -96 -194 -60 -494 -189 -610 -263 -27 -17 -57
-34 -65 -39 -123 -59 -403 -274 -566 -433 -278 -272 -474 -545 -644 -899 -33
-68 -60 -129 -60 -137 0 -7 -4 -17 -9 -22 -28 -30 -155 -462 -176 -600 -5 -27
-10 -57 -11 -65 -2 -8 -6 -37 -9 -64 -4 -27 -8 -57 -10 -66 -10 -50 -18 -224
-18 -360 0 -274 21 -456 79 -705 3 -11 8 -33 11 -50 5 -28 59 -206 88 -290 52
-151 153 -366 244 -520 63 -108 195 -304 229 -341 67 -73 121 -149 109 -155
-7 -4 -59 -25 -117 -47 -753 -284 -1380 -880 -1718 -1632 -86 -192 -184 -508
-208 -669 -3 -20 -7 -44 -10 -53 -7 -24 -11 -45 -19 -113 -4 -32 -8 -66 -10
-75 -14 -75 -21 -402 -11 -550 5 -81 30 -279 41 -330 5 -23 17 -77 30 -140 2
-14 7 -38 10 -55 4 -16 10 -41 15 -55 4 -14 18 -59 30 -100 61 -207 162 -448
255 -605 22 -38 44 -77 47 -86 13 -33 164 -247 256 -362 152 -191 430 -454
602 -569 14 -10 58 -40 99 -68 40 -27 75 -50 77 -50 1 0 47 -26 101 -58 54
-31 145 -79 203 -106 137 -63 149 -68 252 -106 56 -21 85 -37 81 -44 -7 -12
-81 -103 -101 -125 -79 -84 -254 -361 -339 -536 -24 -49 -48 -98 -54 -107 -11
-22 -88 -213 -99 -248 -43 -134 -71 -227 -75 -244 -8 -38 -13 -60 -28 -121 -9
-33 -18 -77 -21 -97 -3 -21 -9 -55 -12 -75 -3 -21 -9 -65 -14 -98 -29 -191
-31 -580 -5 -765 7 -48 17 -111 19 -123 2 -7 6 -34 10 -62 21 -136 94 -389
163 -568 244 -633 710 -1180 1305 -1534 113 -67 312 -164 413 -203 33 -12 74
-28 90 -35 87 -38 406 -125 513 -141 20 -3 48 -7 62 -10 14 -2 48 -7 75 -10
28 -3 55 -7 62 -9 26 -8 234 -19 373 -19 171 0 356 13 435 31 85 19 171 23
168 7 -40 -222 -56 -392 -56 -594 -1 -124 11 -348 18 -360 1 -3 6 -30 9 -61 4
-31 9 -67 11 -80 3 -13 7 -41 10 -64 4 -22 12 -65 20 -95 8 -30 16 -66 18 -80
3 -14 11 -45 18 -70 7 -25 13 -47 14 -50 53 -214 237 -622 365 -810 9 -14 45
-66 79 -117 34 -50 72 -102 84 -115 12 -13 42 -48 65 -78 176 -222 458 -470
727 -640 114 -73 342 -191 460 -240 170 -70 450 -154 600 -180 28 -5 59 -11
70 -13 162 -35 539 -51 768 -33 53 4 107 9 120 11 12 2 78 13 147 24 202 33
422 94 612 170 304 120 582 283 833 488 61 51 91 69 96 61 4 -7 23 -57 43
-111 20 -53 60 -148 89 -210 55 -119 184 -350 198 -355 5 -2 9 -8 9 -14 0 -6
14 -27 30 -48 17 -21 30 -41 30 -44 0 -3 47 -66 104 -139 290 -369 675 -678
1094 -878 154 -73 365 -152 492 -184 8 -2 26 -8 40 -13 22 -8 188 -44 269 -58
14 -3 33 -7 41 -9 8 -2 42 -7 75 -11 33 -3 67 -8 75 -9 46 -9 253 -18 374 -17
153 1 231 7 391 28 151 19 503 104 582 140 17 8 37 14 45 14 8 0 18 4 23 8 6
5 33 17 60 26 67 24 277 122 336 156 25 16 73 43 105 61 262 145 615 451 828
718 93 116 208 282 262 376 76 135 188 369 217 455 9 25 24 64 34 88 l18 42
105 -85 c125 -101 255 -193 345 -243 22 -12 58 -33 80 -46 52 -33 245 -128
315 -156 30 -12 69 -28 85 -35 32 -14 163 -61 180 -65 12 -3 17 -5 80 -24 28
-8 89 -24 137 -35 134 -31 147 -34 258 -51 41 -6 86 -13 100 -16 145 -23 578
-23 740 1 14 2 43 6 65 10 23 3 50 7 60 9 11 2 40 7 65 11 85 13 275 63 405
105 378 123 749 333 1050 594 150 130 366 361 452 483 15 22 49 70 75 106 101
142 249 415 308 568 12 30 27 68 35 84 19 43 102 313 110 360 4 22 11 54 16
71 21 67 55 300 65 439 15 203 5 529 -22 656 -2 13 -9 58 -15 99 -6 41 -11 78
-12 82 -1 3 1 7 6 8 7 2 78 -7 120 -16 114 -23 298 -38 482 -38 130 0 331 11
378 20 11 2 55 8 96 14 91 12 130 19 153 26 9 3 25 6 35 8 10 2 36 9 58 14 22
6 52 13 67 16 48 8 261 78 363 118 91 36 338 153 375 178 8 5 51 31 95 57 289
172 582 428 801 703 361 451 584 982 658 1565 27 212 25 578 -4 755 -5 30 -11
78 -15 105 -25 212 -148 607 -258 828 -22 45 -41 84 -42 87 -22 72 -234 400
-335 520 -25 30 -58 71 -73 91 l-27 36 112 43 c203 76 458 206 604 306 139 96
173 120 269 199 97 80 258 234 341 325 90 101 266 336 331 445 147 246 253
485 329 743 34 116 88 364 100 462 3 30 8 62 9 70 20 107 20 609 0 680 -2 8
-7 40 -10 70 -3 30 -10 78 -16 105 -5 28 -11 60 -14 73 -2 13 -6 31 -9 40 -3
9 -7 33 -10 52 -8 55 -90 325 -130 430 -20 52 -57 137 -81 188 -25 51 -45 95
-45 97 0 2 -24 46 -53 97 -30 51 -56 98 -58 103 -20 49 -217 318 -323 440
-147 169 -411 403 -581 513 -38 26 -72 49 -75 52 -14 15 -268 155 -340 188
-36 16 -86 39 -113 51 -26 12 -82 34 -125 50 -42 16 -85 32 -95 36 -16 7 -15
11 10 44 15 20 29 38 33 41 33 29 209 271 249 343 10 19 25 45 33 58 7 13 16
26 20 29 27 21 224 460 256 570 5 19 22 76 36 125 33 111 72 282 81 355 4 30
8 57 10 60 4 7 13 95 22 205 12 164 6 487 -12 605 -15 93 -33 205 -42 250 -26
140 -140 510 -164 535 -5 5 -9 15 -9 23 0 42 -222 452 -314 580 -273 378 -590
673 -958 892 -87 51 -318 167 -378 189 -19 8 -48 19 -65 26 -80 35 -114 47
-208 75 -185 57 -385 101 -522 116 -27 3 -52 7 -55 9 -10 6 -238 19 -340 18
-158 0 -332 -11 -445 -28 -70 -11 -89 -14 -137 -23 -26 -5 -49 -8 -51 -6 -2 3
2 35 9 73 7 38 16 91 19 117 4 27 8 59 10 71 26 164 23 564 -6 753 -6 36 -12
76 -13 90 -10 73 -18 119 -28 155 -5 22 -12 51 -14 65 -17 96 -114 392 -172
520 -164 367 -362 662 -624 930 -210 215 -422 381 -671 524 -114 65 -324 167
-382 186 -22 7 -44 16 -50 20 -17 12 -255 87 -360 114 -123 30 -294 62 -390
71 -233 24 -593 23 -716 0 -12 -3 -57 -9 -98 -15 -100 -14 -121 -18 -216 -40
-44 -10 -96 -21 -115 -25 -19 -4 -39 -10 -45 -13 -5 -4 -16 -7 -23 -8 -26 -4
-210 -68 -302 -104 -240 -96 -585 -294 -746 -429 -17 -14 -50 -42 -74 -61 -23
-19 -49 -41 -56 -47 -7 -7 -14 -13 -17 -13 -5 0 -25 49 -62 150 -32 86 -134
300 -195 408 -85 152 -269 407 -379 526 -237 257 -505 470 -795 634 -60 34
-110 62 -111 62 -2 0 -49 22 -106 48 -183 86 -423 167 -610 207 -109 24 -111
24 -149 31 -61 11 -64 12 -125 19 -33 4 -67 9 -75 10 -26 5 -319 22 -323 19z
m6034 -5231 c13 -16 12 -17 -3 -4 -17 13 -22 21 -14 21 2 0 10 -8 17 -17z"/>
<path d="M11670 27614 c-160 -26 -292 -121 -361 -260 -43 -87 -52 -126 -51
-234 0 -149 52 -265 164 -365 94 -84 220 -127 353 -120 80 3 137 20 211 60
224 122 318 400 214 632 -33 72 -38 79 -110 152 -111 113 -259 161 -420 135z"/>
<path d="M18245 27623 c-141 -9 -248 -55 -341 -148 -85 -85 -124 -168 -148
-323 -2 -14 9 -110 19 -157 25 -118 133 -248 260 -311 192 -95 413 -58 565 95
226 227 185 599 -85 767 -28 17 -64 37 -81 43 -49 19 -145 36 -189 34z"/>
<path d="M5980 24351 c-142 -42 -245 -130 -310 -265 -36 -74 -42 -97 -47 -173
-9 -152 38 -282 140 -385 97 -97 216 -146 354 -146 275 1 490 217 491 493 0
133 -51 257 -146 351 -57 57 -164 116 -239 132 -63 14 -182 11 -243 -7z"/>
<path d="M23740 24347 c-172 -58 -290 -182 -335 -354 -83 -311 179 -630 499
-610 100 7 134 15 212 55 156 79 259 248 262 428 3 225 -135 414 -354 484 -76
25 -206 23 -284 -3z"/>
<path d="M2746 18724 c-86 -22 -169 -70 -234 -135 -34 -34 -62 -67 -62 -72 0
-6 -7 -18 -15 -27 -9 -10 -24 -40 -34 -67 -95 -260 29 -544 279 -641 88 -34
152 -42 240 -30 73 9 87 13 145 39 105 47 188 128 240 234 39 82 47 114 50
209 7 271 -205 492 -480 500 -44 2 -102 -3 -129 -10z"/>
<path d="M27034 18725 c-240 -52 -400 -261 -389 -508 14 -299 286 -515 583
-463 183 33 346 186 390 367 23 94 16 214 -19 301 -88 225 -330 354 -565 303z"/>
<path d="M2837 12234 c-2 -2 -18 -5 -37 -7 -111 -13 -205 -59 -285 -141 -170
-172 -196 -428 -63 -625 98 -144 259 -226 429 -216 41 2 83 6 94 9 251 59 415
304 374 561 -30 190 -171 348 -359 401 -27 8 -149 22 -153 18z"/>
<path d="M27110 12233 c-195 -22 -335 -116 -414 -278 -42 -85 -54 -143 -51
-232 4 -94 12 -125 48 -202 43 -88 140 -186 227 -228 202 -96 419 -56 580 108
56 56 105 151 121 232 11 53 13 155 4 192 -17 74 -25 98 -51 145 -57 105 -152
188 -262 230 -63 24 -152 38 -202 33z"/>
<path d="M5970 6576 c-86 -28 -144 -63 -206 -125 -189 -189 -191 -501 -4 -690
128 -130 305 -181 475 -136 82 21 120 40 188 93 107 84 175 216 184 357 22
342 -315 606 -637 501z"/>
<path d="M23740 6576 c-142 -47 -242 -134 -301 -260 -89 -190 -50 -415 95
-560 74 -73 179 -128 271 -142 32 -5 138 -5 160 1 11 2 39 9 62 15 132 32 280
172 323 305 7 22 16 49 20 61 9 23 6 195 -3 234 -27 107 -145 260 -232 302
-22 10 -47 22 -55 27 -75 42 -239 50 -340 17z"/>
<path d="M11640 3334 c-174 -40 -302 -155 -360 -324 -27 -78 -34 -204 -15
-267 7 -24 11 -43 8 -43 -3 0 2 -11 11 -25 9 -13 16 -29 16 -35 0 -19 61 -102
104 -144 68 -65 163 -115 249 -132 38 -8 185 -6 198 2 5 3 21 8 35 10 37 7
122 51 169 88 56 44 80 72 120 141 156 274 27 616 -271 715 -77 26 -188 32
-264 14z"/>
<path d="M18164 3339 c-93 -17 -200 -74 -264 -140 -64 -66 -113 -154 -126
-222 -2 -17 -7 -34 -10 -38 -3 -5 -5 -41 -6 -81 -2 -192 112 -374 287 -453 82
-38 118 -46 217 -46 219 -1 413 155 472 379 13 48 14 176 3 227 -9 36 -40 110
-54 126 -7 8 -13 20 -13 25 0 18 -72 95 -124 133 -110 80 -255 114 -382 90z"/>
</g>
</svg>
